<?xml version="1.0" encoding="UTF-8"?> <svg xmlns="http://www.w3.org/2000/svg" id="Layer_2" data-name="Layer 2" viewBox="0 0 266.85 223.23"><defs><style> .cls-1, .cls-2 { fill: #231f20; } .cls-3 { fill: #1a1a1a; } .cls-3, .cls-2 { fill-rule: evenodd; } </style></defs><g id="Layer_1-2" data-name="Layer 1"><g><path class="cls-1" d="m1.2,218.25h3.49v-23.12H1.2v-1.77h9.38v1.77h-3.69v23.12h3.69v1.77H1.2v-1.77Zm13.46,0h3.57l-11.07-12.25,11.07-10.87h-3.06v-1.77h8.48v1.77h-2.87l-10.79,10.67,11.34,12.44h2.83v1.77h-9.5v-1.77Z"></path><path class="cls-1" d="m23.64,218.25h3.92v-23.12h-3.92v-1.77h13.07c4.83,0,7.26,2.98,7.26,6.55s-2.2,5.89-6.12,6.59l5.34,11.73h3.41v1.77h-4.94l-6-13.3h-5.89v11.54h3.73v1.77h-9.85v-1.77Zm11.66-13.3c4.67,0,6.48-2.04,6.48-4.98s-2.12-4.83-5.65-4.83h-6.36v9.81h5.53Z"></path><path class="cls-1" d="m46.6,218.25h3.41v-23.12h-3.41v-1.77h21.35v6.48h-1.81v-4.71h-13.93v10.36h11.07v1.77h-11.07v10.99h13.93v-4.79h1.81v6.55h-21.35v-1.77Z"></path><path class="cls-1" d="m80.19,195.13h-3.34v-1.77h11.46v1.77h-3.34l8.12,23.12h3.3v1.77h-8.83v-1.77h3.34l-2.94-8.36h-10.75l-2.87,8.36h3.49v1.77h-9.03v-1.77h3.38l8.01-23.12Zm7.18,12.99l-4.63-13.5h-.27l-4.63,13.5h9.54Z"></path><path class="cls-1" d="m100.79,218.25h3.65v-23.12h-7.69v6.63h-1.81v-8.4h21.19v8.4h-1.81v-6.63h-7.69v23.12h3.65v1.77h-9.5v-1.77Z"></path><path class="cls-1" d="m117.82,218.25h3.34v-23.12h-3.34v-1.77h8.91v1.77h-3.38v23.12h3.38v1.77h-8.91v-1.77Z"></path><path class="cls-1" d="m130.38,195.13h-3.45v-1.77h9.03v1.77h-3.34l8.4,21.98,8.08-21.98h-3.26v-1.77h8.59v1.77h-3.45l-9.22,25.16h-1.84l-9.54-25.16Z"></path></g><path class="cls-1" d="m70.12,175.57l-6.07-19.42h2.76v-6.11h-23.97v6.11h2.76l-6.28,19.42h-4.69v-19.42h3.05v-6.11h-15.19v6.11h3.56v10.67l-10.48-16.77H3v6.11h3.73v19.42h-3.73v5.88h15.86v-5.88h-3.56v-11.58l10.86,17.46h25.73v-5.88h-3.39l1.36-4.19h9.12l1.36,4.19h-3.35v5.88h17.58v-5.88h-4.43Zm-18.49-9.62l2.84-9.53h.08l2.76,9.53h-5.68Z"></path><path class="cls-3" d="m0,12.15c27.09,25.34,47.59,50.2,103.31,106.45,44.53,44.95,54.75,59.94,92.26,99.57,1.52,1.61,2.99,3.33,4.54,5.07L0,12.15h0Z"></path><path class="cls-2" d="m2.28,0h122.63v4.83h-5.68c-11.64,0-20.39,2.93-26.31,8.8-5.91,5.87-8.89,14.76-8.89,26.68v60.07l-40.59-42.97v-17.1c0-11.92-2.93-20.82-8.8-26.68C28.78,7.76,19.88,4.83,7.96,4.83H2.28V0h0Zm94.77,114.16l78.77-63.01c6.06-5.11,10.17-9.23,12.25-12.44,2.08-3.17,3.12-6.91,3.12-11.17,0-6.91-2.98-12.44-8.89-16.56-5.91-4.12-13.96-6.15-24.13-6.15h-4.54V0h113.22v4.83h-2.74c-15.61,0-37.85,11.64-66.66,34.92l-38.13,30.37,58.48,89.66c6.48,9.98,13.29,17.22,20.44,21.72,7.19,4.49,15.52,6.72,25.03,6.72h3.6v5.39h-94.75l-5.98-6.33c9.31-1.65,13.95-5.51,13.95-11.56,0-1.47-.38-3.08-1.18-4.78-.76-1.7-2.37-4.45-4.78-8.23l-44.33-68.46-29.37,23.48-3.37-3.56h0Z"></path></g></svg> 