<?xml version="1.0" encoding="UTF-8"?>
<svg id="Layer_2" data-name="Layer 2" xmlns="http://www.w3.org/2000/svg" xmlns:xlink="http://www.w3.org/1999/xlink" viewBox="0 0 78.42 43.7">
  <defs>
    <style>
      .cls-1 {
        fill: none;
      }

      .cls-2 {
        clip-path: url(#clippath-1);
      }

      .cls-3 {
        clip-path: url(#clippath-2);
      }

      .cls-4 {
        fill: #ffd200;
      }

      .cls-5 {
        opacity: .55;
      }

      .cls-6 {
        clip-path: url(#clippath);
      }
    </style>
    <clipPath id="clippath">
      <rect class="cls-1" width="78.42" height="43.7"/>
    </clipPath>
    <clipPath id="clippath-1">
      <rect class="cls-1" y="0" width="78.42" height="43.71"/>
    </clipPath>
    <clipPath id="clippath-2">
      <rect class="cls-1" x="-9" y="-8" width="96.42" height="52.7"/>
    </clipPath>
  </defs>
  <g id="Layer_1-2" data-name="Layer 1">
    <g class="cls-6">
      <g class="cls-2">
        <g class="cls-5">
          <g class="cls-3">
            <path class="cls-4" d="M62.95,33.45c2.36,0,4.29-1.76,4.29-3.93s-1.92-3.93-4.29-3.93c-.31,0-.62.03-.91.09l-2.46-4.9c1.05-.34,2.19-.53,3.37-.53,5.57,0,10.11,4.16,10.11,9.27s-4.54,9.27-10.11,9.27-10.11-4.16-10.11-9.27c0-3.43,2.04-6.43,5.07-8.03l2.46,4.9c-1.03.72-1.71,1.85-1.71,3.13,0,2.17,1.92,3.93,4.29,3.93M62.95,27.27c1.35,0,2.45,1.01,2.45,2.25s-1.1,2.25-2.45,2.25-2.45-1.01-2.45-2.25,1.1-2.25,2.45-2.25M62.95,42.02c-7.52,0-13.63-5.61-13.63-12.5,0-4.73,2.88-8.85,7.12-10.98l.71,1.41c-3.66,1.88-6.14,5.46-6.14,9.57,0,6.04,5.36,10.95,11.95,10.95s11.95-4.91,11.95-10.95-5.36-10.96-11.95-10.96c-1.46,0-2.85.24-4.14.68l-.71-1.41c1.51-.53,3.14-.82,4.85-.82,7.52,0,13.63,5.61,13.63,12.5s-6.11,12.5-13.63,12.5M41.33,24.3c-.94-.49-2.02-.78-3.18-.78-.57,0-1.12.07-1.64.2l-5.79-10.23,20.36-2.72-9.74,13.52ZM38.15,33.63c-2.53,0-4.59-1.89-4.59-4.21s2.06-4.21,4.59-4.21,4.6,1.89,4.6,4.21-2.06,4.21-4.6,4.21M15.47,42.02c-7.52,0-13.63-5.61-13.63-12.5s6.12-12.5,13.63-12.5c2.7,0,5.23.73,7.35,1.98l-1.05,1.22c-1.83-1.05-3.99-1.65-6.3-1.65-6.59,0-11.95,4.92-11.95,10.96s5.36,10.95,11.95,10.95,11.44-4.46,11.91-10.11h1.69c-.47,6.5-6.39,11.66-13.6,11.66M19.66,28.68c-.18-.75-.59-1.42-1.17-1.94l3.62-4.19c1.91,1.53,3.18,3.7,3.42,6.14h-5.88ZM15.47,25.59c-2.37,0-4.29,1.76-4.29,3.93s1.92,3.93,4.29,3.93c2.05,0,3.76-1.33,4.19-3.09h5.88c-.47,4.72-4.8,8.43-10.06,8.43-5.57,0-10.11-4.16-10.11-9.27s4.53-9.27,10.11-9.27c1.88,0,3.64.47,5.15,1.3l-3.69,4.28c-.46-.15-.95-.24-1.46-.24M17.92,29.52s0,0,0,0c0,0,0,0,0,0,0,1.24-1.1,2.24-2.45,2.24s-2.45-1.01-2.45-2.25,1.1-2.25,2.45-2.25,2.45,1.01,2.45,2.24M27.38,28.68c-.25-2.98-1.8-5.62-4.13-7.46l1.05-1.21c2.72,2.12,4.52,5.21,4.77,8.67h-1.69ZM29.15,14.38l5.66,10c-1.64.91-2.79,2.47-3.04,4.29h-.86c-.26-4-2.33-7.56-5.47-9.99l3.71-4.3ZM23.26,7.08c-.34.02-.63-.22-.65-.53l-.05-.89c-.01-.16.05-.31.17-.42.12-.11.27-.17.44-.17h0l8.62.11c.32,0,.59.24.6.53l.02.34c0,.15-.05.29-.16.41-.11.11-.26.18-.42.19l-8.59.43ZM62.95,15.33c-1.98,0-3.87.35-5.62.97l-6.18-12.32,7.05-2.35c.48-.16.72-.64.55-1.08-.17-.44-.7-.66-1.18-.5l-7.67,2.56c-.32.11-.58.33-.71.62-.13.29-.13.62.01.91l2.44,4.86-21.8,2.91-1.74-3.38,3.85-.19c.65-.03,1.25-.3,1.69-.74.44-.45.66-1.02.62-1.62l-.02-.34c-.07-1.17-1.13-2.11-2.41-2.12l-8.62-.12c-.67,0-1.33.24-1.8.69-.47.45-.72,1.06-.68,1.68l.05.89c.07,1.19,1.15,2.12,2.44,2.12.05,0,.09,0,.14,0l2.76-.14,2.11,4.09-4.27,4.95c-2.44-1.48-5.36-2.34-8.49-2.34C6.94,15.33,0,21.7,0,29.52s6.94,14.19,15.47,14.19,14.96-5.91,15.44-13.34h.9c.5,2.8,3.15,4.95,6.34,4.95,3.55,0,6.43-2.65,6.43-5.9,0-1.58-.69-3.02-1.8-4.08l10.06-13.96,2.82,5.63c-4.87,2.39-8.18,7.1-8.18,12.51,0,7.82,6.94,14.19,15.47,14.19s15.47-6.36,15.47-14.19-6.94-14.19-15.47-14.19"/>
          </g>
        </g>
      </g>
    </g>
  </g>
</svg>