<?xml version="1.0" encoding="UTF-8"?>
<svg id="Layer_2" data-name="Layer 2" xmlns="http://www.w3.org/2000/svg" xmlns:xlink="http://www.w3.org/1999/xlink" viewBox="0 0 78.46 95.66">
  <defs>
    <style>
      .cls-1 {
        fill: none;
      }

      .cls-2 {
        fill: #e36aa8;
      }

      .cls-3 {
        clip-path: url(#clippath);
      }
    </style>
    <clipPath id="clippath">
      <rect class="cls-1" width="78.46" height="95.66"/>
    </clipPath>
  </defs>
  <g id="Layer_1-2" data-name="Layer 1">
    <g class="cls-3">
      <path class="cls-2" d="M27.45,8.94c-2.09,2.21-3.09,5.31-2.1,8.39.5,1.57,1.55,2.8,2.25,4.25.89,1.85,1.3,3.87,1.34,5.95.03,1.41,2.05,1.42,2.02,0-.05-2.76-.69-5.45-2.01-7.82-.81-1.44-1.81-2.66-1.96-4.42-.16-1.91.67-3.51,1.89-4.79.93-.99-.5-2.54-1.43-1.55"/>
      <path class="cls-2" d="M49.51,27.56c0-1.68.29-3.35.87-4.91.68-1.81,1.95-3.24,2.61-5.05,1.15-3.15.17-6.38-1.99-8.67-.93-.99-2.36.56-1.43,1.55,1.22,1.29,2.05,2.88,1.89,4.79-.16,1.86-1.28,3.14-2.1,4.68-1.23,2.3-1.87,4.94-1.87,7.6,0,1.41,2.02,1.42,2.02,0"/>
      <path class="cls-2" d="M29.18,9.71V1.06c0-1.41-2.02-1.42-2.02,0v8.65c0,1.41,2.02,1.42,2.02,0"/>
      <path class="cls-2" d="M29.24,28.3c2.72,3.29,6.71,4.62,10.7,4.4,3.53-.19,7.33-1.21,9.44-4.55.74-1.17-1.01-2.27-1.74-1.11-1.76,2.79-5.36,3.42-8.25,3.49-3.3.08-6.47-1.07-8.71-3.78-.87-1.05-2.3.51-1.43,1.55"/>
      <path class="cls-2" d="M20.54,89.28c4.18-12.57,7.43-25.58,10.22-38.59,1.42-6.63,2.67-13.29,3.74-20,.22-1.38-1.73-1.97-1.95-.58-2.95,18.59-7.28,36.99-12.79,54.88-.38,1.24-.77,2.47-1.17,3.7-.44,1.33,1.51,1.91,1.95.58"/>
      <path class="cls-2" d="M59.61,88.21c.53.58.18.24-.01-.35-.25-.76-.49-1.53-.72-2.29-.83-2.66-1.62-5.34-2.38-8.02-2.57-9.02-4.85-18.15-6.83-27.35-1.42-6.61-2.67-13.26-3.74-19.95-.22-1.39-2.17-.8-1.95.58,2.97,18.67,7.32,37.14,12.87,55.09.32,1.02.58,3.02,1.33,3.84.92,1,2.35-.55,1.43-1.55"/>
      <path class="cls-2" d="M58.48,87.96c-5.53,4.15-12.65,5.5-19.25,5.5s-13.63-1.34-19.15-5.42c-1.08-.8-2.09,1.1-1.02,1.9,5.81,4.3,13.26,5.72,20.17,5.72,6.94,0,14.47-1.44,20.27-5.8,1.06-.8.05-2.7-1.02-1.9"/>
      <path class="cls-2" d="M1.82,75.35c10.59-14.66,20.19-30.33,28.86-46.39.66-1.22-1.09-2.33-1.74-1.11C20.37,43.73,10.81,59.38.4,73.8c-.79,1.1.63,2.66,1.43,1.55"/>
      <path class="cls-2" d="M20.39,85.66c-6.72-1.72-14.44-5.3-18.47-11.74-.73-1.16-2.48-.06-1.74,1.11,4.35,6.94,12.4,10.89,19.68,12.75,1.27.32,1.81-1.79.54-2.12"/>
      <path class="cls-2" d="M78.06,73.8c-10.42-14.42-19.97-30.07-28.55-45.95-.66-1.22-2.4-.11-1.74,1.11,8.68,16.06,18.27,31.73,28.86,46.39.8,1.11,2.22-.45,1.43-1.55"/>
      <path class="cls-2" d="M76.54,73.92c-4.03,6.44-11.75,10.02-18.47,11.74-1.26.32-.73,2.44.54,2.12,7.28-1.86,15.33-5.81,19.68-12.75.73-1.17-1.02-2.27-1.75-1.11"/>
      <path class="cls-2" d="M51.3,9.71V1.06c0-1.41-2.02-1.42-2.02,0v8.65c0,1.41,2.02,1.42,2.02,0"/>
      <path class="cls-2" d="M49.78,8.77c-2.98,2.37-6.88,3.5-10.55,3.57-1.3.02-1.3,2.22,0,2.2,4-.07,8.33-1.28,11.57-3.87,1.04-.83.03-2.73-1.02-1.9"/>
      <path class="cls-2" d="M39.23,12.33c-3.67-.07-7.58-1.2-10.55-3.57-1.05-.84-2.06,1.07-1.02,1.9,3.25,2.59,7.57,3.79,11.57,3.87,1.3.02,1.3-2.17,0-2.2"/>
    </g>
  </g>
</svg>