<?xml version="1.0" encoding="UTF-8"?>
<svg id="Layer_2" data-name="Layer 2" xmlns="http://www.w3.org/2000/svg" xmlns:xlink="http://www.w3.org/1999/xlink" viewBox="0 0 34.96 27.97">
  <defs>
    <style>
      .cls-1 {
        fill: none;
      }

      .cls-2 {
        fill: #d9bfdc;
      }

      .cls-3 {
        clip-path: url(#clippath);
      }
    </style>
    <clipPath id="clippath">
      <rect class="cls-1" width="34.96" height="27.97"/>
    </clipPath>
  </defs>
  <g id="Layer_1-2" data-name="Layer 1">
    <g class="cls-3">
      <path class="cls-2" d="M34.89,14.31c-.09-.22-.24-.39-.42-.53-.08-.06-.17-.12-.26-.16-.17-.07-.15-.2-.1.05-.01.12-.03.24-.04.36.01-.02.02-.03.03-.05-.09.07-.17.15-.26.22.6-.27,1.23-.51,1.09-1.41-.05-.31-.23-.58-.51-.68-.36-.12-.78.24-.87-.36-.08-.54-.84-.4-.85.13h0c.28-.03.56-.07.85-.11-1.55-4.15-5.96-6.05-9.73-6.62-.04.31-.08.62-.11.93h0c.32-.02.55-.39.37-.71-1.33-2.44-3.7-3.96-6.1-4.84-.95-.35-2.84-1.19-3.21.46-.16.72.33,1.51.39,2.24.09,1.01-.13,1.98-.55,2.87-.14.3.03.74.37.71,0,0,0,0,0,0-.04-.31-.08-.62-.11-.93-2.71.78-5.46,1.96-7.61,3.99h.61c-.92-1.15-2.02-2.12-3.23-2.87-.59-.37-1.21-.69-1.85-.97-.55-.24-1.28-.66-1.87-.49C-.33,5.9-.06,7.6.39,8.55c.17.36.36.7.51,1.07.12.32.11.64.2.96.1.38.4.66.66.92.61.6,1.81,1.4,1.92,2.38.12,1.01-1.24,1.95-1.83,2.52-.25.24-.55.5-.69.84-.08.2-.07.39-.1.61-.07.44-.29.83-.48,1.22-.49.99-1.08,2.68.21,3.32.63.31,1.45-.17,2.03-.43.69-.3,1.37-.65,2.01-1.07.67-.44,1.31-.94,1.91-1.5.27-.26.54-.54.79-.83.18-.2.49-.46.49-.77-.25.11-.49.22-.74.34,2.15,2.03,4.9,3.21,7.61,3.99.04-.31.08-.62.11-.93h0c-.34-.03-.51.42-.37.71.41.86.62,1.78.56,2.75-.03.47-.14.92-.28,1.37-.1.34-.2.63-.12.99.36,1.66,2.25.81,3.21.46,2.4-.87,4.77-2.4,6.1-4.84.18-.33-.06-.68-.37-.71h0c.04.31.08.62.11.93,2.64-.4,5.28-1.37,7.37-3.23.83-.73,1.56-1.63,2.06-2.67.12-.26.23-.52.33-.8.15-.42.19-.47.63-.52.61-.07.83-.55.72-1.19-.1-.6-.93-.35-.83.25.13,0,.14-.01.03-.01-.06,0-.11,0-.16,0-.12,0-.26.01-.38.05-.21.07-.39.23-.52.42-.27.37-.35.91-.56,1.33-.48,1-1.19,1.85-2,2.54-1.97,1.7-4.46,2.55-6.91,2.92-.51.08-.33.88.12.93h0l-.37-.71c-1.14,2.1-3.17,3.45-5.21,4.26-.56.22-1.14.41-1.72.56-.42.11-.85.15-.75-.49.05-.34.22-.67.28-1.01.26-1.41.02-2.79-.57-4.05-.12.24-.25.48-.37.71,0,0,0,0,0,0,.49.04.58-.8.11-.93-2.56-.74-5.2-1.83-7.23-3.75-.28-.26-.74-.1-.74.34.04-.11.08-.22.13-.34-.79.98-1.7,1.83-2.73,2.51-.49.33-1,.62-1.53.88-.26.13-.53.25-.81.35-.26.1-.77.39-1.03.32-.69-.17-.2-1.31-.01-1.7.27-.55.58-1.1.71-1.72.03-.13.02-.29.05-.42.06-.28-.09.11.03-.09.06-.1.16-.18.24-.27.31-.33.65-.61.97-.93.58-.57,1.24-1.27,1.36-2.15.11-.82-.36-1.54-.84-2.1-.29-.34-.61-.64-.93-.94-.25-.23-.61-.49-.79-.8-.07-.12-.04-.04-.03,0-.04-.1-.02-.3-.04-.42-.04-.27-.13-.53-.23-.78-.25-.61-.8-1.3-.83-1.99-.02-.33.1-.74.44-.76.28-.02.69.24.95.34.67.27,1.31.59,1.93.97,1.18.73,2.24,1.66,3.13,2.78.16.2.44.16.61,0,2.03-1.92,4.67-3.01,7.23-3.75.46-.13.38-.97-.11-.93h0l.37.71c.58-1.23.83-2.57.6-3.94-.06-.35-.17-.68-.27-1.02-.17-.58.11-.74.61-.62.62.15,1.23.35,1.82.59,2.05.81,4.07,2.16,5.21,4.26.12-.24.25-.47.37-.71h0c-.45.03-.62.85-.12.93,3.41.51,7.7,2.15,9.13,5.96.17.47.84.45.85-.13,0,0,0,0,0-.01-.28.04-.56.08-.85.13.06.39.27.82.61.98.22.11.4.06.63.07.08-.01.15-.02.23-.03-.09.06-.18.11-.26.16-.08.04-.18.04-.27.08-.3.13-.5.47-.32.81.18.35.65.33.8.71.23.55.98.07.74-.48"/>
      <path class="cls-2" d="M29.9,12.23c0-.05.01-.03,0,0,0,0,.05-.09.02-.05-.03.04.02,0,.03-.02.03-.02-.06,0,.01,0,.05,0,.03.02,0,0,.01,0,.08.06.04.02-.03-.04,0,.02.01.03.02.04,0-.08,0,.01,0,.05-.01.03,0,0-.01.02-.02.04-.03.06.04-.07.02,0-.01,0-.06,0,.07,0,0,0-.05,0-.06-.02-.01,0-.02-.01-.04-.02-.06-.04.04.03.02.03,0-.02-.02-.05,0,.09,0-.01.01.26.19.47.43.47.22,0,.44-.22.43-.47-.02-.48-.35-.89-.81-.89s-.8.41-.81.89c0,.48.36.87.79.89.46.02.8-.4.83-.89.01-.26-.21-.47-.43-.47-.24,0-.42.22-.43.47"/>
      <path class="cls-2" d="M11.55,10.72c-1,2.1-.66,4.33.63,6.16.34.48.95-.19.61-.67-1.04-1.48-1.3-3.33-.5-5.01.26-.54-.49-1.02-.74-.48"/>
      <path class="cls-2" d="M15.37,9.23c-1.28,3.01-.95,6.33.77,9.05.31.5,1.06.02.74-.48-1.53-2.43-1.92-5.38-.76-8.1.23-.55-.51-1.03-.74-.48"/>
      <path class="cls-2" d="M19.44,7.64c-1.4,4.07-1.02,8.56.9,12.35.27.53,1.01.06.74-.48-1.81-3.58-2.13-7.77-.81-11.61.2-.57-.64-.82-.83-.25"/>
      <path class="cls-2" d="M23.59,9.72c-1.33,2.76-.88,5.75.83,8.16.34.48.95-.2.61-.67-1.47-2.06-1.83-4.67-.7-7.02.26-.54-.48-1.02-.74-.48"/>
    </g>
  </g>
</svg>