<?xml version="1.0" encoding="UTF-8"?>
<svg id="Layer_2" data-name="Layer 2" xmlns="http://www.w3.org/2000/svg" xmlns:xlink="http://www.w3.org/1999/xlink" viewBox="0 0 82.12 59.11">
  <defs>
    <style>
      .cls-1 {
        fill: none;
      }

      .cls-2 {
        fill: #d1ead9;
      }

      .cls-3 {
        clip-path: url(#clippath);
      }
    </style>
    <clipPath id="clippath">
      <rect class="cls-1" width="82.12" height="59.11"/>
    </clipPath>
  </defs>
  <g id="Layer_1-2" data-name="Layer 1">
    <g class="cls-3">
      <path class="cls-2" d="M61.34,19.74c-5.57,1.95-11.14,3.91-16.71,5.86-8.88,3.12-17.75,6.23-26.63,9.34-2.03.71-4.07,1.43-6.11,2.14-1.15.41-.66,2.23.51,1.82,5.57-1.95,11.14-3.91,16.71-5.86,8.88-3.11,17.75-6.23,26.63-9.34,2.03-.71,4.07-1.43,6.11-2.14,1.15-.4.66-2.23-.51-1.82"/>
      <path class="cls-2" d="M43.04,46.22c8.46.47,16.88,1.15,24.51-3.23,6.6-3.79,11.28-10.03,14.46-16.76.25-.54.07-1.22-.57-1.39-6.53-1.7-13.06-3.39-19.59-5.09.22.22.45.44.67.66-1.65-4.56-2.9-9.56-6.15-13.32C51.24,1.18,42.86-1.03,35.27.44c-2.44.47-4.78,1.4-7.12,2.22-2.03.71-4.09,1.36-6.08,2.16-7.11,2.82-12.93,8.97-14.26,16.55-1.06,6.02,1.41,11.35,3.41,16.88.03-.24.06-.49.1-.73-3.73,5.29-7.45,10.59-11.18,15.88-.28.4-.1,1.08.34,1.29,5.52,2.64,11.51,4.46,17.69,4.41,5.98-.04,11.59-1.92,16.41-5.38,4.66-3.35,8.64-7.53,13.05-11.19,4.39-3.65,9.16-6.83,14.28-9.38,6.16-3.07,12.76-5.17,19.53-6.51,1.21-.24.7-2.06-.51-1.82-11.11,2.19-21.64,6.57-30.72,13.29-4.65,3.44-8.76,7.47-13.14,11.23-4.28,3.68-8.98,6.61-14.68,7.53-7.19,1.16-14.48-.73-20.94-3.82.11.43.23.86.34,1.29,1.74-2.47,3.48-4.94,5.21-7.4,1.28-1.82,2.56-3.64,3.84-5.45.67-.95,1.54-1.91,2.07-2.95.51-.99-.53-2.69-.87-3.63-.56-1.56-1.15-3.12-1.69-4.69-2.04-5.94-.54-12.47,3.47-17.27,2.14-2.56,4.86-4.59,7.92-5.97,1.6-.72,3.31-1.24,4.96-1.83,4.48-1.57,8.86-3.39,13.72-3.29,6.42.13,12.8,3.21,16.16,8.73,1.06,1.74,1.67,3.65,2.36,5.54.56,1.54.97,3.29,1.71,4.75.44.86,1.67.93,2.55,1.15,1.88.49,3.76.98,5.64,1.47,3.79.99,7.59,1.97,11.38,2.96.23.06.46.12.69.18-.19-.46-.38-.93-.57-1.39-3.04,6.45-7.44,12.45-13.77,16.09-7.3,4.2-15.45,3.43-23.54,2.97-1.23-.07-1.23,1.82,0,1.89"/>
      <path class="cls-2" d="M31.13,30.98c-1.17-.84-1.92-2.37-2.94-3.37-.95-.94-2.08-1.56-3.36-1.93-2.01-.59-5.29-.38-5.8,2.16-.48,2.37,2.27,4.29,4.19,5.03,2.48.96,5.23.74,7.68-.16,1.15-.42.65-2.25-.51-1.82-1.64.6-3.4.92-5.15.6-1.17-.22-5.02-1.71-4.24-3.43.87-1.92,4.48-.31,5.52.6,1.35,1.18,2.17,2.91,3.63,3.96,1,.72,1.96-.92.97-1.63"/>
      <path class="cls-2" d="M37.81,41.21c-2.91-4.43-6.69-8.69-7.78-13.99-.7-3.38-.5-8.66,2.79-10.76.92-.58,2.21-1.07,2.97-.01.29.4.39.96.49,1.44.06.27.05.28.05.29.08.83-.05,1.64-.27,2.44-1.21,4.36-4.28,8.24-7.08,11.72-3.08,3.82-4.35,8.82-5.2,13.52-.22,1.19,1.63,1.7,1.85.5.55-3.02,1.26-6.07,2.51-8.9.85-1.93,2.01-3.49,3.32-5.14,2.79-3.53,6.02-7.86,6.73-12.42.5-3.2-1.35-7.18-5.25-5.61-3.87,1.56-5.15,6.12-5.13,9.91.05,7.05,4.68,12.34,8.37,17.95.67,1.02,2.33.07,1.65-.95"/>
    </g>
  </g>
</svg>