<?xml version="1.0" encoding="UTF-8"?>
<svg id="Layer_2" data-name="Layer 2" xmlns="http://www.w3.org/2000/svg" xmlns:xlink="http://www.w3.org/1999/xlink" viewBox="0 0 58.41 57.93">
  <defs>
    <style>
      .cls-1 {
        fill: none;
      }

      .cls-2 {
        fill: #d9bfdc;
      }

      .cls-3 {
        clip-path: url(#clippath);
      }
    </style>
    <clipPath id="clippath">
      <rect class="cls-1" width="58.41" height="57.93"/>
    </clipPath>
  </defs>
  <g id="Layer_1-2" data-name="Layer 1">
    <g class="cls-3">
      <path class="cls-2" d="M54.19,37.86c1.32-5.36,2.92-10.69,3.75-16.17.72-4.75.86-9.99-1.32-14.37C53.06.14,43.59-1.92,37.11,1.94c-3.74,2.23-5.37,6.16-5.38,10.58,0,2.82.45,5.63.64,8.44.19,2.88.27,5.76.23,8.65-.03,2.89-.17,5.79-.43,8.67-.24,2.6-.76,5.18-.76,7.8.01,4.56,2.14,8.83,6.16,10.81,4.2,2.06,9.54.95,12.36-3.04,1.39-1.97,1.92-4.4,2.33-6.77.54-3.1,1.17-6.17,1.92-9.22.24-.99-1.21-1.42-1.46-.42-.6,2.45-1.16,4.91-1.61,7.4-.36,1.98-.6,4.01-1.29,5.91-1.51,4.16-5.86,6.41-9.95,5.33-4.07-1.08-6.72-4.89-6.93-9.22-.12-2.35.29-4.69.57-7.01.29-2.39.43-4.8.52-7.2.2-5.12.04-10.25-.46-15.35-.43-4.37-.91-9.23,2.42-12.54,5.03-4.98,14.47-3.93,18.47,1.93,2.83,4.14,2.74,9.77,2,14.58-.84,5.48-2.43,10.81-3.75,16.17-.24.99,1.21,1.42,1.46.42"/>
      <path class="cls-2" d="M47.57,35.45c1.94-1.58,3.59-3.64,4.47-6.07.73-2.03.7-4.27.27-6.36-.83-4.03-3.05-7.68-5.45-10.87-.6-.79-1.22-1.57-1.89-2.3-.28-.3-.79-.31-1.07,0-.86.97-1.7,1.95-2.52,2.96-1.15,1.4-2.48,2.88-3.25,4.56-2.18,4.72-1.7,10.75,0,15.54.34.95,1.8.54,1.46-.42-.68-1.91-1.15-3.92-1.3-5.95-.21-2.78,0-6.1,1.27-8.62.79-1.56,2.02-2.93,3.12-4.26.75-.91,1.51-1.8,2.3-2.68h-1.07c2.25,2.43,4.18,5.35,5.58,8.4,1.06,2.3,1.84,4.91,1.58,7.49-.31,3.08-2.31,5.64-4.56,7.47-.77.63.31,1.75,1.07,1.12"/>
      <path class="cls-2" d="M44.1,7.06c-.14,1.12-.28,2.23-.42,3.35-.05.43.39.79.76.79.45,0,.7-.37.76-.79.14-1.12.28-2.23.42-3.35.05-.43-.39-.79-.76-.79-.45,0-.7.37-.76.79"/>
      <path class="cls-2" d="M5.68,37.44c-1.18-4.8-2.55-9.57-3.46-14.43-.84-4.55-1.25-9.53.45-13.93C5.38,2.05,14.2-.27,20.29,3.17c1.54.87,2.86,2.11,3.72,3.73,1.06,2.01,1.23,4.39,1.14,6.64-.1,2.48-.46,4.94-.62,7.42-.17,2.59-.25,5.19-.24,7.78.02,4.93.54,9.73,1.04,14.61.46,4.53-.35,9.11-4.31,11.62-3.87,2.46-9.39,1.47-11.77-2.77-1.11-1.98-1.43-4.31-1.81-6.54-.47-2.77-1.09-5.51-1.75-8.24-.24-.99-1.7-.57-1.46.42.67,2.73,1.28,5.46,1.75,8.23.37,2.16.72,4.35,1.66,6.34,1.89,3.97,6.29,6.05,10.39,5.37,4.04-.66,7.42-3.91,8.51-8.04.65-2.47.46-5.06.15-7.57-.34-2.75-.63-5.48-.77-8.25-.29-5.77-.12-11.56.47-17.3.47-4.62.52-9.59-2.93-13.01C18.06-1.74,8.15-1.02,3.36,4.89.03,9-.37,14.77.23,19.92c.71,6.1,2.53,12.01,3.99,17.94.24.99,1.7.57,1.46-.42"/>
      <path class="cls-2" d="M11.91,34.32c-2.22-1.81-4.21-4.32-4.55-7.35-.3-2.62.5-5.28,1.57-7.61,1.4-3.05,3.33-5.96,5.58-8.4h-1.07c.76.85,1.49,1.71,2.22,2.59,1.12,1.35,2.4,2.75,3.19,4.35,1.23,2.48,1.47,5.71,1.28,8.45-.14,2.1-.61,4.15-1.31,6.12-.34.96,1.12,1.37,1.46.42,1.7-4.79,2.18-10.82,0-15.54-.76-1.64-2.05-3.09-3.17-4.46-.85-1.03-1.71-2.05-2.6-3.05-.28-.31-.79-.3-1.07,0-1.76,1.9-3.3,4.1-4.6,6.37-2.06,3.59-3.8,8.07-2.73,12.32.71,2.79,2.59,5.17,4.73,6.92.76.62,1.84-.5,1.07-1.12"/>
      <path class="cls-2" d="M12.8,7.06c.14,1.12.28,2.23.42,3.35.05.43.31.79.76.79.37,0,.81-.37.76-.79-.14-1.12-.28-2.23-.42-3.35-.05-.43-.31-.79-.76-.79-.37,0-.81.37-.76.79"/>
    </g>
  </g>
</svg>