<?xml version="1.0" encoding="UTF-8"?>
<svg id="Layer_2" data-name="Layer 2" xmlns="http://www.w3.org/2000/svg" xmlns:xlink="http://www.w3.org/1999/xlink" viewBox="0 0 75.36 75.39">
  <defs>
    <style>
      .cls-1 {
        fill: none;
      }

      .cls-2 {
        fill: #fbf6bc;
      }

      .cls-3 {
        clip-path: url(#clippath);
      }
    </style>
    <clipPath id="clippath">
      <rect class="cls-1" width="75.36" height="75.39"/>
    </clipPath>
  </defs>
  <g id="Layer_1-2" data-name="Layer 1">
    <g class="cls-3">
      <path class="cls-2" d="M60.05,40.11s0-.06,0-.09c.02-.24.04-.48.05-.72,0-.12.02-.24.03-.35.02-.36.03-.72.03-1.08s-.01-.72-.03-1.08c0-.12-.02-.24-.03-.35-.01-.24-.03-.48-.05-.72,0-.03,0-.06,0-.09l9.16,2.24-9.16,2.24ZM55.93,50.94s.03-.05.05-.08c.14-.2.28-.4.41-.6.06-.1.13-.19.2-.29.19-.3.38-.6.56-.91,0,0,0-.01.01-.02.18-.3.34-.61.51-.92.06-.11.11-.22.16-.32.11-.21.21-.43.31-.64.01-.03.03-.06.04-.09l6.81,6.5-9.06-2.62ZM46.92,58.28s.05-.03.08-.04c.23-.1.45-.21.67-.32.1-.05.2-.09.3-.15.64-.33,1.26-.69,1.87-1.08.09-.06.18-.12.28-.19.21-.14.41-.27.61-.42.03-.02.05-.03.08-.05l2.63,9.02-6.52-6.78ZM37.68,69.27l-2.25-9.12s.06,0,.09,0c.25.02.49.04.74.06.11,0,.22.02.33.02.36.02.72.03,1.08.03s.72-.01,1.09-.03c.11,0,.22-.02.33-.02.25-.02.5-.03.74-.06.03,0,.06,0,.09,0l-2.25,9.12ZM21.91,65.06l2.63-9.02s.05.03.08.05c.2.14.4.28.6.41.1.06.19.13.29.19.6.39,1.23.75,1.86,1.08.1.05.21.1.31.15.22.11.44.22.66.32.03.01.06.03.08.04l-6.52,6.78ZM10.37,53.57l6.81-6.5s.03.06.04.08c.1.22.21.44.32.66.05.1.1.21.15.31.33.64.69,1.26,1.08,1.86.06.09.12.18.19.27.14.21.28.41.42.61.02.02.03.05.05.07l-9.06,2.62ZM6.15,37.87l9.16-2.24s0,.06,0,.09c-.02.24-.04.48-.05.72,0,.12-.02.24-.02.35-.02.36-.03.72-.03,1.08s0,.72.03,1.08c0,.12.02.23.02.35.01.24.03.48.05.72,0,.03,0,.06,0,.09l-9.16-2.24ZM19.43,24.79s-.03.05-.05.08c-.14.19-.27.39-.4.59-.07.1-.14.2-.2.3-.19.3-.38.59-.55.9,0,.01-.02.03-.02.04-.17.3-.34.6-.5.91-.06.11-.11.22-.16.33-.1.21-.21.42-.31.64-.01.03-.03.06-.04.09l-6.81-6.49,9.06,2.62ZM28.44,17.45s-.06.03-.08.04c-.22.1-.44.21-.65.31-.1.05-.21.1-.32.15-.64.33-1.26.69-1.86,1.07-.1.06-.19.13-.29.19-.2.14-.4.27-.6.41-.02.02-.05.03-.08.05l-2.63-9.02,6.52,6.78ZM37.68,6.22l2.26,9.37s-.08,0-.12,0c-.17-.02-.35-.03-.52-.04-.19-.01-.38-.03-.57-.04-.11,0-.22,0-.33,0-.24,0-.48-.02-.72-.02s-.47.01-.71.02c-.11,0-.23,0-.34,0-.19,0-.37.02-.56.04-.18.01-.36.02-.54.04-.04,0-.08,0-.11,0l2.26-9.37ZM53.44,10.67l-2.63,9.02s-.05-.03-.08-.05c-.19-.14-.39-.27-.59-.41-.1-.07-.2-.14-.3-.2-.3-.19-.6-.37-.9-.55-.02,0-.03-.02-.04-.03-.3-.17-.61-.34-.92-.5-.11-.06-.22-.11-.33-.16-.21-.1-.43-.21-.64-.31-.03-.01-.06-.03-.09-.04l6.52-6.78ZM64.99,22.17l-6.81,6.49s-.03-.06-.04-.09c-.1-.22-.21-.43-.31-.65-.05-.11-.1-.22-.16-.32-.33-.64-.69-1.25-1.08-1.86-.06-.1-.13-.19-.19-.28-.14-.2-.27-.41-.42-.61-.02-.02-.03-.05-.05-.08l9.06-2.62ZM57.39,41.5c-.19,1.03-.47,2.06-.82,3.05-.1.29-.21.57-.33.85-.81,1.97-1.92,3.79-3.32,5.42-.68.8-1.44,1.55-2.24,2.23-.23.2-.47.39-.71.58-1.69,1.31-3.57,2.34-5.59,3.05-.99.35-2.02.62-3.06.81-1.78.33-3.65.41-5.48.25-.61-.05-1.21-.14-1.81-.25-1.04-.19-2.06-.46-3.06-.81-.29-.1-.58-.21-.86-.33-.35-.14-.7-.3-1.04-.46-1.31-.62-2.55-1.38-3.69-2.27-.24-.19-.48-.38-.71-.58h0c-.8-.68-1.55-1.43-2.23-2.23-.2-.23-.39-.47-.58-.71-.22-.28-.43-.56-.63-.85-1.02-1.45-1.84-3.03-2.44-4.71-.35-.99-.62-2.02-.82-3.05-.22-1.18-.33-2.4-.33-3.63,0-.32,0-.64.02-.96.04-.9.15-1.79.31-2.67.19-1.03.46-2.06.81-3.05.1-.29.21-.57.33-.85.81-1.97,1.92-3.79,3.32-5.42.68-.8,1.44-1.55,2.24-2.23,1.87-1.59,3.99-2.81,6.3-3.63h0c.99-.35,2.02-.62,3.06-.81,2.31-.42,4.75-.43,7.07-.03.07.01.15.02.22.03,1.03.19,2.06.46,3.06.81,1.64.58,3.17,1.37,4.6,2.33.09.06.17.11.26.17.5.35.98.73,1.45,1.12h0c.8.69,1.55,1.43,2.24,2.23.2.23.39.47.58.71.22.28.43.56.63.85,1.02,1.45,1.84,3.03,2.44,4.71.35.99.63,2.01.82,3.05.22,1.18.33,2.4.33,3.63s-.11,2.44-.33,3.63M74.44,36.64l-14.81-3.62c-.14-.64-.31-1.27-.51-1.89l10.97-10.47.05-.05c.39-.42.46-1.03.17-1.52-.29-.49-.86-.73-1.42-.59l-14.63,4.24c-.44-.48-.91-.94-1.39-1.38l4.24-14.53v-.04c.15-.55-.09-1.12-.58-1.41-.49-.29-1.11-.22-1.53.17l-10.56,10.97c-.62-.19-1.26-.36-1.89-.5l-3.62-15.03-.02-.07C38.74.37,38.25,0,37.68,0s-1.06.37-1.23.91l-3.64,15.1c-.64.14-1.27.31-1.89.5l-10.51-10.92-.05-.05c-.42-.39-1.03-.46-1.53-.17s-.73.86-.59,1.41l4.26,14.57c-.48.44-.95.9-1.39,1.38l-14.59-4.22h-.04c-.56-.15-1.13.08-1.42.58-.29.49-.22,1.1.17,1.52l11.01,10.51c-.2.62-.37,1.25-.51,1.89l-14.75,3.6-.06.02C.37,36.81,0,37.3,0,37.87s.37,1.06.92,1.23l14.81,3.62c.14.64.31,1.27.51,1.89l-10.97,10.47-.05.05c-.39.42-.46,1.03-.17,1.52.24.4.65.63,1.1.63.11,0,.21-.01.32-.04l14.63-4.24c.44.48.91.94,1.39,1.38l-4.24,14.53v.04c-.15.55.09,1.12.58,1.41.2.12.43.18.65.18.31,0,.63-.12.87-.35l10.56-10.97c.62.19,1.26.36,1.9.5l3.62,14.69.02.06c.16.55.66.91,1.23.91s1.06-.37,1.23-.91l3.63-14.75c.64-.14,1.27-.31,1.9-.5l10.51,10.92.05.05c.25.23.56.35.87.35.22,0,.45-.06.65-.18.49-.29.73-.86.59-1.41l-4.26-14.57c.48-.44.95-.9,1.39-1.38l14.59,4.23h.04c.11.04.21.05.32.05.45,0,.86-.23,1.1-.63.29-.49.22-1.1-.17-1.52l-11.01-10.51c.2-.62.36-1.25.51-1.89l14.75-3.6.06-.02c.55-.16.92-.66.92-1.23s-.37-1.06-.92-1.22"/>
    </g>
  </g>
</svg>